<svg xmlns="http://www.w3.org/2000/svg" xmlns:xlink="http://www.w3.org/1999/xlink" width="538" zoomAndPan="magnify" viewBox="0 0 403.5 89.999999" height="120" preserveAspectRatio="xMidYMid meet" version="1.0"><defs><g/><clipPath id="4c4ebb3eac"><path d="M 0 2.28125 L 110.113281 2.28125 L 110.113281 89.171875 L 0 89.171875 Z M 0 2.28125 " clip-rule="nonzero"/></clipPath></defs><path fill="#0e4f55" d="M 96.433594 56.296875 C 89.363281 56.296875 82.507812 58.835938 77.125 63.441406 C 74.839844 65.402344 72.867188 67.6875 71.269531 70.222656 C 69.261719 73.410156 67.90625 76.867188 67.222656 80.527344 C 68.144531 80.609375 69.074219 80.648438 70.015625 80.648438 C 71.195312 80.648438 72.363281 80.585938 73.507812 80.457031 C 74.511719 76.273438 76.632812 72.480469 79.707031 69.386719 C 84.167969 64.902344 90.109375 62.429688 96.433594 62.429688 C 97.117188 62.429688 97.792969 62.457031 98.46875 62.519531 C 99.351562 60.632812 100.050781 58.644531 100.546875 56.582031 C 99.1875 56.390625 97.8125 56.296875 96.433594 56.296875 Z M 96.433594 56.296875 " fill-opacity="1" fill-rule="nonzero"/><path fill="#0e4f55" d="M 39.488281 56.582031 C 39.984375 58.644531 40.683594 60.632812 41.566406 62.519531 C 42.242188 62.457031 42.921875 62.429688 43.601562 62.429688 C 49.214844 62.429688 54.527344 64.378906 58.773438 67.957031 C 59.671875 66.09375 60.703125 64.296875 61.867188 62.589844 C 56.660156 58.523438 50.222656 56.296875 43.601562 56.296875 C 42.222656 56.296875 40.847656 56.390625 39.488281 56.582031 Z M 39.488281 56.582031 " fill-opacity="1" fill-rule="nonzero"/><path fill="#f29b27" d="M 51.394531 44.972656 C 58.222656 46.265625 64.605469 49.25 70.015625 53.679688 C 75.429688 49.25 81.8125 46.265625 88.640625 44.972656 C 85.28125 37.832031 78.011719 33.144531 70.015625 33.144531 C 62.023438 33.144531 54.753906 37.832031 51.394531 44.972656 Z M 51.394531 44.972656 " fill-opacity="1" fill-rule="nonzero"/><path fill="#0e4f55" d="M 67.761719 55.664062 C 60.90625 50.195312 52.390625 47.203125 43.601562 47.203125 C 41.949219 47.203125 40.304688 47.308594 38.675781 47.515625 C 38.644531 48.09375 38.625 48.675781 38.625 49.257812 C 38.625 50.757812 38.730469 52.230469 38.933594 53.671875 C 40.476562 53.449219 42.039062 53.335938 43.601562 53.335938 C 50.855469 53.335938 57.902344 55.761719 63.617188 60.203125 C 64.882812 58.59375 66.269531 57.074219 67.761719 55.664062 Z M 67.761719 55.664062 " fill-opacity="1" fill-rule="nonzero"/><path fill="#0e4f55" d="M 101.359375 47.515625 C 99.730469 47.308594 98.085938 47.203125 96.433594 47.203125 C 87.089844 47.203125 78.050781 50.585938 70.988281 56.730469 C 68.777344 58.660156 66.78125 60.832031 65.066406 63.1875 C 63.296875 65.609375 61.808594 68.238281 60.644531 71.007812 C 59.640625 73.394531 58.878906 75.875 58.371094 78.410156 C 60.257812 79.167969 62.238281 79.746094 64.285156 80.125 C 65.027344 76.046875 66.527344 72.195312 68.765625 68.644531 C 70.519531 65.855469 72.6875 63.347656 75.199219 61.195312 C 81.117188 56.125 88.660156 53.335938 96.433594 53.335938 C 97.996094 53.335938 99.558594 53.449219 101.097656 53.671875 C 101.300781 52.230469 101.40625 50.757812 101.40625 49.257812 C 101.410156 48.675781 101.394531 48.097656 101.359375 47.515625 Z M 101.359375 47.515625 " fill-opacity="1" fill-rule="nonzero"/><path fill="#0e4f55" d="M 96.9375 65.394531 C 96.769531 65.390625 96.601562 65.390625 96.433594 65.390625 C 90.902344 65.390625 85.707031 67.550781 81.804688 71.476562 C 79.417969 73.875 77.691406 76.757812 76.71875 79.929688 C 85.28125 78.0625 92.546875 72.6875 96.9375 65.394531 Z M 96.9375 65.394531 " fill-opacity="1" fill-rule="nonzero"/><path fill="#0e4f55" d="M 43.097656 65.394531 C 46.09375 70.375 50.433594 74.460938 55.613281 77.144531 C 56.082031 74.984375 56.722656 72.863281 57.53125 70.804688 C 53.714844 67.304688 48.808594 65.390625 43.601562 65.390625 C 43.433594 65.390625 43.265625 65.390625 43.097656 65.394531 Z M 43.097656 65.394531 " fill-opacity="1" fill-rule="nonzero"/><g clip-path="url(#4c4ebb3eac)"><path fill="#0e4f55" d="M 98.621094 20.730469 L 94.464844 24.8125 C 100.953125 31.296875 104.527344 39.925781 104.527344 49.101562 C 104.527344 68.042969 89.117188 83.453125 70.175781 83.453125 C 51.234375 83.453125 36.183594 68.472656 35.824219 49.101562 C 35.746094 44.804688 36.800781 40.191406 36.984375 39.125 C 40.761719 17.28125 53.222656 11.53125 65.257812 12.277344 C 52.992188 13.4375 45.453125 24.792969 45.746094 24.972656 C 59.246094 33.28125 68.523438 17.699219 78.5625 13.285156 C 73.777344 6.949219 65.710938 2.28125 58.367188 2.28125 C 49.117188 2.28125 41.355469 7.929688 37.851562 16.769531 C 36.601562 13.558594 34.769531 10.972656 32.367188 9.042969 C 29.316406 6.589844 25.394531 5.292969 21.027344 5.292969 C 12.128906 5.292969 2.84375 10.714844 0.753906 17.136719 L 0.0078125 19.425781 L 2.375 19 C 2.945312 18.894531 3.527344 18.84375 4.101562 18.84375 C 7.386719 18.84375 10.386719 20.546875 13.289062 22.199219 C 16.195312 23.851562 19.203125 25.582031 22.53125 25.5625 C 26.914062 25.535156 28.566406 21.433594 28.566406 21.433594 C 24.792969 12.925781 13.988281 13.5 13.988281 13.5 C 20.539062 11.421875 26.570312 13.699219 29.804688 17.773438 C 31.480469 19.949219 32.273438 24.078125 31.5 32.152344 C 31.121094 36.140625 29.914062 44.707031 29.914062 48.40625 C 29.914062 48.644531 29.917969 48.878906 29.917969 49.117188 C 29.917969 59.777344 34.128906 69.820312 41.777344 77.398438 C 49.402344 84.957031 59.492188 89.121094 70.175781 89.121094 C 92.242188 89.121094 110.195312 71.167969 110.195312 49.101562 C 110.195312 38.414062 106.398438 28.058594 98.621094 20.730469 Z M 98.621094 20.730469 " fill-opacity="1" fill-rule="nonzero"/></g><g fill="#ffffff" fill-opacity="1"><g transform="translate(117.67773, 64.050751)"><g><path d="M 27.96875 0 L 24.671875 -8.6875 L 10.03125 -8.6875 L 6.734375 0 L 1.25 0 L 14.78125 -34.953125 L 20.28125 -34.953125 L 33.703125 0 Z M 14.6875 -20.875 L 12.03125 -13.875 L 22.71875 -13.875 L 19.96875 -21.078125 C 19.539062 -22.242188 19.109375 -23.5 18.671875 -24.84375 C 18.242188 -26.1875 17.8125 -27.539062 17.375 -28.90625 C 16.90625 -27.507812 16.445312 -26.113281 16 -24.71875 C 15.550781 -23.320312 15.113281 -22.039062 14.6875 -20.875 Z M 14.6875 -20.875 "/></g></g></g><g fill="#ffffff" fill-opacity="1"><g transform="translate(156.773864, 64.050751)"><g><path d="M 7.1875 4.34375 C 8.1875 5.113281 9.4375 5.726562 10.9375 6.1875 C 12.4375 6.65625 13.898438 6.890625 15.328125 6.890625 C 18.023438 6.890625 20.085938 6.234375 21.515625 4.921875 C 22.953125 3.609375 23.671875 1.632812 23.671875 -1 L 23.671875 -4.1875 C 23.203125 -3.394531 22.535156 -2.640625 21.671875 -1.921875 C 20.804688 -1.203125 19.789062 -0.617188 18.625 -0.171875 C 17.457031 0.273438 16.242188 0.5 14.984375 0.5 C 12.546875 0.5 10.34375 -0.0820312 8.375 -1.25 C 6.414062 -2.414062 4.863281 -4.03125 3.71875 -6.09375 C 2.570312 -8.15625 2 -10.503906 2 -13.140625 C 2 -15.796875 2.5625 -18.144531 3.6875 -20.1875 C 4.820312 -22.238281 6.363281 -23.847656 8.3125 -25.015625 C 10.257812 -26.179688 12.429688 -26.765625 14.828125 -26.765625 C 16.828125 -26.765625 18.597656 -26.320312 20.140625 -25.4375 C 21.691406 -24.5625 22.867188 -23.609375 23.671875 -22.578125 L 23.671875 -26.21875 L 28.8125 -26.21875 L 28.8125 -1.59375 C 28.8125 1.53125 28.1875 4.050781 26.9375 5.96875 C 25.6875 7.882812 24.035156 9.28125 21.984375 10.15625 C 19.941406 11.039062 17.722656 11.484375 15.328125 11.484375 C 13.460938 11.484375 11.601562 11.191406 9.75 10.609375 C 7.90625 10.023438 6.421875 9.269531 5.296875 8.34375 Z M 15.53125 -22.078125 C 13.9375 -22.078125 12.515625 -21.679688 11.265625 -20.890625 C 10.015625 -20.109375 9.03125 -19.046875 8.3125 -17.703125 C 7.59375 -16.359375 7.234375 -14.835938 7.234375 -13.140625 C 7.234375 -11.441406 7.59375 -9.925781 8.3125 -8.59375 C 9.03125 -7.257812 10.015625 -6.203125 11.265625 -5.421875 C 12.515625 -4.640625 13.9375 -4.25 15.53125 -4.25 C 17.195312 -4.25 18.648438 -4.628906 19.890625 -5.390625 C 21.140625 -6.160156 22.113281 -7.21875 22.8125 -8.5625 C 23.519531 -9.914062 23.875 -11.441406 23.875 -13.140625 C 23.875 -14.867188 23.519531 -16.394531 22.8125 -17.71875 C 22.113281 -19.050781 21.140625 -20.109375 19.890625 -20.890625 C 18.648438 -21.679688 17.195312 -22.078125 15.53125 -22.078125 Z M 15.53125 -22.078125 "/></g></g></g><g fill="#ffffff" fill-opacity="1"><g transform="translate(193.323559, 64.050751)"><g><path d="M 18.28125 -20.671875 C 17.945312 -20.835938 17.535156 -20.976562 17.046875 -21.09375 C 16.566406 -21.207031 16.0625 -21.265625 15.53125 -21.265625 C 14.46875 -21.265625 13.421875 -20.988281 12.390625 -20.4375 C 11.359375 -19.894531 10.5 -19.113281 9.8125 -18.09375 C 9.125 -17.082031 8.78125 -15.878906 8.78125 -14.484375 L 8.78125 0 L 3.59375 0 L 3.59375 -26.21875 L 8.78125 -26.21875 L 8.78125 -21.265625 C 9.519531 -22.867188 10.628906 -24.1875 12.109375 -25.21875 C 13.585938 -26.25 15.144531 -26.765625 16.78125 -26.765625 C 18.007812 -26.765625 18.957031 -26.597656 19.625 -26.265625 Z M 18.28125 -20.671875 "/></g></g></g><g fill="#ffffff" fill-opacity="1"><g transform="translate(217.590364, 64.050751)"><g><path d="M 28.71875 -13.140625 C 28.71875 -10.472656 28.125 -8.113281 26.9375 -6.0625 C 25.757812 -4.019531 24.160156 -2.414062 22.140625 -1.25 C 20.128906 -0.0820312 17.875 0.5 15.375 0.5 C 12.882812 0.5 10.625 -0.0820312 8.59375 -1.25 C 6.5625 -2.414062 4.953125 -4.019531 3.765625 -6.0625 C 2.585938 -8.113281 2 -10.472656 2 -13.140625 C 2 -15.796875 2.585938 -18.144531 3.765625 -20.1875 C 4.953125 -22.238281 6.5625 -23.847656 8.59375 -25.015625 C 10.625 -26.179688 12.882812 -26.765625 15.375 -26.765625 C 17.875 -26.765625 20.128906 -26.179688 22.140625 -25.015625 C 24.160156 -23.847656 25.757812 -22.238281 26.9375 -20.1875 C 28.125 -18.144531 28.71875 -15.796875 28.71875 -13.140625 Z M 23.46875 -13.140625 C 23.5 -14.898438 23.15625 -16.453125 22.4375 -17.796875 C 21.726562 -19.148438 20.753906 -20.203125 19.515625 -20.953125 C 18.285156 -21.703125 16.90625 -22.078125 15.375 -22.078125 C 13.84375 -22.078125 12.453125 -21.703125 11.203125 -20.953125 C 9.960938 -20.203125 8.984375 -19.148438 8.265625 -17.796875 C 7.546875 -16.453125 7.203125 -14.898438 7.234375 -13.140625 C 7.203125 -11.398438 7.546875 -9.851562 8.265625 -8.5 C 8.984375 -7.15625 9.960938 -6.097656 11.203125 -5.328125 C 12.453125 -4.566406 13.84375 -4.1875 15.375 -4.1875 C 16.90625 -4.1875 18.285156 -4.566406 19.515625 -5.328125 C 20.753906 -6.097656 21.726562 -7.15625 22.4375 -8.5 C 23.15625 -9.851562 23.5 -11.398438 23.46875 -13.140625 Z M 23.46875 -13.140625 "/></g></g></g><g fill="#f29b28" fill-opacity="1"><g transform="translate(252.452124, 64.050751)"><g><path d="M 26.671875 -5.1875 L 26.671875 0 L 4.890625 0 L 4.890625 -34.953125 L 10.28125 -34.953125 L 10.28125 -5.1875 Z M 26.671875 -5.1875 "/></g></g></g><g fill="#f29b28" fill-opacity="1"><g transform="translate(286.505293, 64.050751)"><g><path d="M 7.046875 -31.90625 C 5.878906 -31.90625 5.007812 -32.207031 4.4375 -32.8125 C 3.875 -33.414062 3.59375 -34.195312 3.59375 -35.15625 C 3.59375 -35.988281 3.875 -36.738281 4.4375 -37.40625 C 5.007812 -38.070312 5.878906 -38.40625 7.046875 -38.40625 C 8.210938 -38.40625 9.078125 -38.101562 9.640625 -37.5 C 10.203125 -36.90625 10.484375 -36.125 10.484375 -35.15625 C 10.484375 -34.320312 10.203125 -33.570312 9.640625 -32.90625 C 9.078125 -32.238281 8.210938 -31.90625 7.046875 -31.90625 Z M 9.6875 0 L 4.546875 0 L 4.546875 -26.21875 L 9.6875 -26.21875 Z M 9.6875 0 "/></g></g></g><g fill="#f29b28" fill-opacity="1"><g transform="translate(304.530812, 64.050751)"><g><path d="M 6.640625 -26.21875 L 14.28125 -7.484375 L 22.21875 -26.21875 L 27.515625 -26.21875 L 15.875 0 L 12.1875 0 L 1.09375 -26.21875 Z M 6.640625 -26.21875 "/></g></g></g><g fill="#f29b28" fill-opacity="1"><g transform="translate(337.285791, 64.050751)"><g><path d="M 18.28125 -20.671875 C 17.945312 -20.835938 17.535156 -20.976562 17.046875 -21.09375 C 16.566406 -21.207031 16.0625 -21.265625 15.53125 -21.265625 C 14.46875 -21.265625 13.421875 -20.988281 12.390625 -20.4375 C 11.359375 -19.894531 10.5 -19.113281 9.8125 -18.09375 C 9.125 -17.082031 8.78125 -15.878906 8.78125 -14.484375 L 8.78125 0 L 3.59375 0 L 3.59375 -26.21875 L 8.78125 -26.21875 L 8.78125 -21.265625 C 9.519531 -22.867188 10.628906 -24.1875 12.109375 -25.21875 C 13.585938 -26.25 15.144531 -26.765625 16.78125 -26.765625 C 18.007812 -26.765625 18.957031 -26.597656 19.625 -26.265625 Z M 18.28125 -20.671875 "/></g></g></g><g fill="#f29b28" fill-opacity="1"><g transform="translate(361.552603, 64.050751)"><g><path d="M 26.125 -3.453125 L 26.0625 -3.453125 C 25 -2.410156 23.535156 -1.488281 21.671875 -0.6875 C 19.804688 0.101562 17.859375 0.5 15.828125 0.5 C 13.097656 0.5 10.691406 -0.0703125 8.609375 -1.21875 C 6.535156 -2.375 4.914062 -3.957031 3.75 -5.96875 C 2.582031 -7.976562 2 -10.265625 2 -12.828125 C 2 -15.765625 2.613281 -18.269531 3.84375 -20.34375 C 5.070312 -22.425781 6.703125 -24.023438 8.734375 -25.140625 C 10.765625 -26.253906 12.976562 -26.8125 15.375 -26.8125 C 17.570312 -26.8125 19.566406 -26.269531 21.359375 -25.1875 C 23.160156 -24.113281 24.59375 -22.625 25.65625 -20.71875 C 26.726562 -18.820312 27.265625 -16.609375 27.265625 -14.078125 L 27.21875 -11.890625 L 7.140625 -11.890625 C 7.441406 -9.523438 8.414062 -7.648438 10.0625 -6.265625 C 11.707031 -4.878906 13.796875 -4.1875 16.328125 -4.1875 C 18.160156 -4.1875 19.640625 -4.523438 20.765625 -5.203125 C 21.898438 -5.890625 22.835938 -6.550781 23.578125 -7.1875 Z M 15.375 -22.078125 C 13.414062 -22.078125 11.703125 -21.617188 10.234375 -20.703125 C 8.773438 -19.785156 7.8125 -18.210938 7.34375 -15.984375 L 22.015625 -15.984375 L 22.015625 -16.328125 C 21.921875 -17.460938 21.546875 -18.460938 20.890625 -19.328125 C 20.242188 -20.191406 19.4375 -20.863281 18.46875 -21.34375 C 17.507812 -21.832031 16.476562 -22.078125 15.375 -22.078125 Z M 15.375 -22.078125 "/></g></g></g></svg>