<svg xmlns="http://www.w3.org/2000/svg" xmlns:xlink="http://www.w3.org/1999/xlink" width="500" zoomAndPan="magnify" viewBox="0 0 375 374.999991" height="500" preserveAspectRatio="xMidYMid meet" version="1.0"><defs><g/><clipPath id="95cf63bc1e"><path d="M 0 10.28125 L 358.5 10.28125 L 358.5 293 L 0 293 Z M 0 10.28125 " clip-rule="nonzero"/></clipPath></defs><path fill="#1e3b09" d="M 313.703125 185.996094 C 290.703125 185.996094 268.402344 194.25 250.894531 209.242188 C 243.453125 215.617188 237.042969 223.046875 231.84375 231.300781 C 225.3125 241.664062 220.90625 252.914062 218.683594 264.820312 C 221.675781 265.078125 224.707031 265.21875 227.769531 265.21875 C 231.609375 265.21875 235.398438 265.003906 239.125 264.585938 C 242.386719 250.984375 249.285156 238.640625 259.289062 228.582031 C 273.800781 213.984375 293.125 205.945312 313.703125 205.945312 C 315.921875 205.945312 318.128906 206.039062 320.324219 206.234375 C 323.191406 200.097656 325.46875 193.640625 327.078125 186.925781 C 322.65625 186.308594 318.183594 185.996094 313.703125 185.996094 Z M 313.703125 185.996094 " fill-opacity="1" fill-rule="nonzero"/><path fill="#1e3b09" d="M 128.464844 186.925781 C 130.074219 193.640625 132.347656 200.097656 135.21875 206.234375 C 137.417969 206.039062 139.628906 205.945312 141.835938 205.945312 C 160.105469 205.945312 177.382812 212.285156 191.195312 223.925781 C 194.113281 217.867188 197.476562 212.027344 201.257812 206.46875 C 184.316406 193.238281 163.378906 185.996094 141.835938 185.996094 C 137.351562 185.996094 132.878906 186.308594 128.464844 186.925781 Z M 128.464844 186.925781 " fill-opacity="1" fill-rule="nonzero"/><path fill="#f29b27" d="M 167.191406 149.160156 C 189.40625 153.367188 210.167969 163.070312 227.769531 177.480469 C 245.375 163.066406 266.136719 153.367188 288.347656 149.160156 C 277.425781 125.925781 253.773438 110.683594 227.769531 110.683594 C 201.765625 110.683594 178.113281 125.925781 167.191406 149.160156 Z M 167.191406 149.160156 " fill-opacity="1" fill-rule="nonzero"/><path fill="#1e3b09" d="M 220.4375 183.941406 C 198.128906 166.152344 170.429688 156.417969 141.835938 156.417969 C 136.46875 156.417969 131.109375 156.753906 125.816406 157.4375 C 125.710938 159.3125 125.65625 161.207031 125.65625 163.105469 C 125.65625 167.972656 126 172.769531 126.660156 177.453125 C 131.675781 176.730469 136.75 176.363281 141.835938 176.363281 C 165.433594 176.363281 188.363281 184.261719 206.953125 198.699219 C 211.070312 193.472656 215.582031 188.527344 220.4375 183.941406 Z M 220.4375 183.941406 " fill-opacity="1" fill-rule="nonzero"/><path fill="#1e3b09" d="M 329.726562 157.4375 C 324.429688 156.753906 319.070312 156.417969 313.703125 156.417969 C 283.300781 156.417969 253.902344 167.425781 230.929688 187.414062 C 223.730469 193.679688 217.246094 200.75 211.667969 208.414062 C 205.910156 216.296875 201.066406 224.847656 197.277344 233.851562 C 194.007812 241.617188 191.535156 249.683594 189.882812 257.933594 C 196.023438 260.394531 202.464844 262.28125 209.128906 263.511719 C 211.535156 250.25 216.421875 237.710938 223.699219 226.167969 C 229.40625 217.097656 236.453125 208.9375 244.628906 201.925781 C 263.882812 185.4375 288.414062 176.367188 313.703125 176.367188 C 318.789062 176.367188 323.867188 176.730469 328.878906 177.453125 C 329.539062 172.769531 329.882812 167.972656 329.882812 163.105469 C 329.882812 161.207031 329.835938 159.320312 329.726562 157.4375 Z M 329.726562 157.4375 " fill-opacity="1" fill-rule="nonzero"/><path fill="#1e3b09" d="M 315.335938 215.597656 C 314.792969 215.582031 314.25 215.574219 313.707031 215.574219 C 295.710938 215.574219 278.8125 222.605469 266.113281 235.378906 C 258.351562 243.179688 252.734375 252.5625 249.570312 262.878906 C 277.421875 256.796875 301.054688 239.320312 315.335938 215.597656 Z M 315.335938 215.597656 " fill-opacity="1" fill-rule="nonzero"/><path fill="#1e3b09" d="M 140.203125 215.597656 C 149.953125 231.796875 164.066406 245.085938 180.914062 253.8125 C 182.433594 246.789062 184.515625 239.890625 187.152344 233.191406 C 174.742188 221.804688 158.777344 215.574219 141.835938 215.574219 C 141.292969 215.574219 140.75 215.582031 140.203125 215.597656 Z M 140.203125 215.597656 " fill-opacity="1" fill-rule="nonzero"/><g clip-path="url(#95cf63bc1e)"><path fill="#1e3b09" d="M 320.816406 70.296875 L 307.300781 83.574219 C 328.40625 104.679688 340.03125 132.742188 340.03125 162.589844 C 340.03125 224.203125 289.898438 274.332031 228.285156 274.332031 C 166.667969 274.332031 117.707031 225.609375 116.542969 162.589844 C 116.285156 148.617188 119.714844 133.609375 120.316406 130.136719 C 132.597656 59.082031 173.136719 40.371094 212.285156 42.796875 C 172.390625 46.578125 147.859375 83.519531 148.816406 84.101562 C 192.738281 111.121094 222.914062 60.441406 255.566406 46.078125 C 240.003906 25.472656 213.761719 10.28125 189.878906 10.28125 C 159.78125 10.28125 134.53125 28.65625 123.140625 57.417969 C 119.074219 46.976562 113.105469 38.554688 105.296875 32.273438 C 95.371094 24.296875 82.617188 20.078125 68.410156 20.078125 C 39.464844 20.078125 9.257812 37.726562 2.457031 58.613281 L 0.03125 66.050781 L 7.730469 64.664062 C 9.589844 64.332031 11.484375 64.160156 13.351562 64.160156 C 24.039062 64.160156 33.796875 69.710938 43.234375 75.074219 C 52.695312 80.453125 62.476562 86.082031 73.296875 86.019531 C 87.558594 85.933594 92.929688 72.59375 92.929688 72.59375 C 80.664062 44.90625 45.507812 46.78125 45.507812 46.78125 C 66.8125 40.027344 86.433594 47.433594 96.957031 60.683594 C 102.414062 67.765625 104.984375 81.1875 102.476562 107.457031 C 101.238281 120.425781 97.316406 148.296875 97.316406 160.332031 C 97.316406 161.101562 97.324219 161.871094 97.324219 162.640625 C 97.324219 197.316406 111.023438 229.988281 135.902344 254.636719 C 160.714844 279.226562 193.527344 292.769531 228.285156 292.769531 C 300.066406 292.769531 358.464844 234.371094 358.464844 162.589844 C 358.464844 127.820312 346.121094 94.136719 320.816406 70.296875 Z M 320.816406 70.296875 " fill-opacity="1" fill-rule="nonzero"/></g><g fill="#70865c" fill-opacity="1"><g transform="translate(103.073392, 343.059484)"><g><path d="M 20.984375 0 L 18.515625 -6.515625 L 7.53125 -6.515625 L 5.0625 0 L 0.9375 0 L 11.09375 -26.234375 L 15.21875 -26.234375 L 25.296875 0 Z M 11.015625 -15.671875 L 9.03125 -10.421875 L 17.0625 -10.421875 L 15 -15.8125 C 14.664062 -16.6875 14.335938 -17.628906 14.015625 -18.640625 C 13.691406 -19.660156 13.367188 -20.679688 13.046875 -21.703125 C 12.691406 -20.648438 12.34375 -19.597656 12 -18.546875 C 11.664062 -17.503906 11.335938 -16.546875 11.015625 -15.671875 Z M 11.015625 -15.671875 "/></g></g></g><g fill="#70865c" fill-opacity="1"><g transform="translate(132.412554, 343.059484)"><g><path d="M 5.390625 3.265625 C 6.140625 3.835938 7.078125 4.296875 8.203125 4.640625 C 9.328125 4.992188 10.425781 5.171875 11.5 5.171875 C 13.53125 5.171875 15.082031 4.675781 16.15625 3.6875 C 17.226562 2.707031 17.765625 1.226562 17.765625 -0.75 L 17.765625 -3.15625 C 17.421875 -2.550781 16.921875 -1.976562 16.265625 -1.4375 C 15.617188 -0.90625 14.859375 -0.46875 13.984375 -0.125 C 13.109375 0.207031 12.195312 0.375 11.25 0.375 C 9.425781 0.375 7.773438 -0.0625 6.296875 -0.9375 C 4.816406 -1.8125 3.644531 -3.019531 2.78125 -4.5625 C 1.925781 -6.113281 1.5 -7.878906 1.5 -9.859375 C 1.5 -11.859375 1.921875 -13.625 2.765625 -15.15625 C 3.617188 -16.695312 4.773438 -17.90625 6.234375 -18.78125 C 7.703125 -19.65625 9.335938 -20.09375 11.140625 -20.09375 C 12.628906 -20.09375 13.957031 -19.757812 15.125 -19.09375 C 16.289062 -18.4375 17.171875 -17.71875 17.765625 -16.9375 L 17.765625 -19.671875 L 21.625 -19.671875 L 21.625 -1.203125 C 21.625 1.148438 21.15625 3.046875 20.21875 4.484375 C 19.28125 5.921875 18.039062 6.96875 16.5 7.625 C 14.96875 8.289062 13.300781 8.625 11.5 8.625 C 10.101562 8.625 8.710938 8.40625 7.328125 7.96875 C 5.941406 7.53125 4.820312 6.960938 3.96875 6.265625 Z M 11.65625 -16.5625 C 10.457031 -16.5625 9.390625 -16.269531 8.453125 -15.6875 C 7.515625 -15.101562 6.773438 -14.300781 6.234375 -13.28125 C 5.703125 -12.269531 5.4375 -11.128906 5.4375 -9.859375 C 5.4375 -8.585938 5.703125 -7.453125 6.234375 -6.453125 C 6.773438 -5.453125 7.515625 -4.65625 8.453125 -4.0625 C 9.390625 -3.476562 10.457031 -3.1875 11.65625 -3.1875 C 12.90625 -3.1875 14 -3.472656 14.9375 -4.046875 C 15.875 -4.617188 16.601562 -5.410156 17.125 -6.421875 C 17.65625 -7.441406 17.921875 -8.585938 17.921875 -9.859375 C 17.921875 -11.160156 17.65625 -12.3125 17.125 -13.3125 C 16.601562 -14.3125 15.875 -15.101562 14.9375 -15.6875 C 14 -16.269531 12.90625 -16.5625 11.65625 -16.5625 Z M 11.65625 -16.5625 "/></g></g></g><g fill="#70865c" fill-opacity="1"><g transform="translate(159.840836, 343.059484)"><g><path d="M 13.71875 -15.515625 C 13.46875 -15.640625 13.160156 -15.742188 12.796875 -15.828125 C 12.429688 -15.921875 12.050781 -15.96875 11.65625 -15.96875 C 10.851562 -15.96875 10.066406 -15.757812 9.296875 -15.34375 C 8.523438 -14.9375 7.878906 -14.347656 7.359375 -13.578125 C 6.847656 -12.816406 6.59375 -11.914062 6.59375 -10.875 L 6.59375 0 L 2.703125 0 L 2.703125 -19.671875 L 6.59375 -19.671875 L 6.59375 -15.96875 C 7.144531 -17.164062 7.976562 -18.148438 9.09375 -18.921875 C 10.207031 -19.703125 11.375 -20.09375 12.59375 -20.09375 C 13.519531 -20.09375 14.234375 -19.96875 14.734375 -19.71875 Z M 13.71875 -15.515625 "/></g></g></g><g fill="#70865c" fill-opacity="1"><g transform="translate(178.05185, 343.059484)"><g><path d="M 21.546875 -9.859375 C 21.546875 -7.859375 21.101562 -6.085938 20.21875 -4.546875 C 19.332031 -3.015625 18.132812 -1.8125 16.625 -0.9375 C 15.113281 -0.0625 13.421875 0.375 11.546875 0.375 C 9.671875 0.375 7.96875 -0.0625 6.4375 -0.9375 C 4.914062 -1.8125 3.710938 -3.015625 2.828125 -4.546875 C 1.941406 -6.085938 1.5 -7.859375 1.5 -9.859375 C 1.5 -11.859375 1.941406 -13.625 2.828125 -15.15625 C 3.710938 -16.695312 4.914062 -17.90625 6.4375 -18.78125 C 7.96875 -19.65625 9.671875 -20.09375 11.546875 -20.09375 C 13.421875 -20.09375 15.113281 -19.65625 16.625 -18.78125 C 18.132812 -17.90625 19.332031 -16.695312 20.21875 -15.15625 C 21.101562 -13.625 21.546875 -11.859375 21.546875 -9.859375 Z M 17.625 -9.859375 C 17.644531 -11.179688 17.382812 -12.347656 16.84375 -13.359375 C 16.3125 -14.367188 15.582031 -15.15625 14.65625 -15.71875 C 13.726562 -16.28125 12.691406 -16.5625 11.546875 -16.5625 C 10.398438 -16.5625 9.359375 -16.28125 8.421875 -15.71875 C 7.484375 -15.15625 6.742188 -14.367188 6.203125 -13.359375 C 5.660156 -12.347656 5.40625 -11.179688 5.4375 -9.859375 C 5.40625 -8.554688 5.660156 -7.398438 6.203125 -6.390625 C 6.742188 -5.378906 7.484375 -4.585938 8.421875 -4.015625 C 9.359375 -3.441406 10.398438 -3.15625 11.546875 -3.15625 C 12.691406 -3.15625 13.726562 -3.441406 14.65625 -4.015625 C 15.582031 -4.585938 16.3125 -5.378906 16.84375 -6.390625 C 17.382812 -7.398438 17.644531 -8.554688 17.625 -9.859375 Z M 17.625 -9.859375 "/></g></g></g><g fill="#70865c" fill-opacity="1"><g transform="translate(204.206192, 343.059484)"><g><path d="M 20.015625 -3.890625 L 20.015625 0 L 3.671875 0 L 3.671875 -26.234375 L 7.71875 -26.234375 L 7.71875 -3.890625 Z M 20.015625 -3.890625 "/></g></g></g><g fill="#70865c" fill-opacity="1"><g transform="translate(229.761049, 343.059484)"><g><path d="M 5.28125 -23.953125 C 4.40625 -23.953125 3.753906 -24.175781 3.328125 -24.625 C 2.910156 -25.082031 2.703125 -25.671875 2.703125 -26.390625 C 2.703125 -27.015625 2.910156 -27.578125 3.328125 -28.078125 C 3.753906 -28.578125 4.40625 -28.828125 5.28125 -28.828125 C 6.15625 -28.828125 6.804688 -28.601562 7.234375 -28.15625 C 7.660156 -27.707031 7.875 -27.117188 7.875 -26.390625 C 7.875 -25.765625 7.660156 -25.203125 7.234375 -24.703125 C 6.804688 -24.203125 6.15625 -23.953125 5.28125 -23.953125 Z M 7.28125 0 L 3.421875 0 L 3.421875 -19.671875 L 7.28125 -19.671875 Z M 7.28125 0 "/></g></g></g><g fill="#70865c" fill-opacity="1"><g transform="translate(243.288505, 343.059484)"><g><path d="M 4.984375 -19.671875 L 10.71875 -5.625 L 16.6875 -19.671875 L 20.65625 -19.671875 L 11.921875 0 L 9.140625 0 L 0.828125 -19.671875 Z M 4.984375 -19.671875 "/></g></g></g><g fill="#70865c" fill-opacity="1"><g transform="translate(267.869168, 343.059484)"><g><path d="M 13.71875 -15.515625 C 13.46875 -15.640625 13.160156 -15.742188 12.796875 -15.828125 C 12.429688 -15.921875 12.050781 -15.96875 11.65625 -15.96875 C 10.851562 -15.96875 10.066406 -15.757812 9.296875 -15.34375 C 8.523438 -14.9375 7.878906 -14.347656 7.359375 -13.578125 C 6.847656 -12.816406 6.59375 -11.914062 6.59375 -10.875 L 6.59375 0 L 2.703125 0 L 2.703125 -19.671875 L 6.59375 -19.671875 L 6.59375 -15.96875 C 7.144531 -17.164062 7.976562 -18.148438 9.09375 -18.921875 C 10.207031 -19.703125 11.375 -20.09375 12.59375 -20.09375 C 13.519531 -20.09375 14.234375 -19.96875 14.734375 -19.71875 Z M 13.71875 -15.515625 "/></g></g></g><g fill="#70865c" fill-opacity="1"><g transform="translate(286.08019, 343.059484)"><g><path d="M 19.609375 -2.59375 L 19.5625 -2.59375 C 18.769531 -1.8125 17.671875 -1.117188 16.265625 -0.515625 C 14.867188 0.078125 13.40625 0.375 11.875 0.375 C 9.832031 0.375 8.03125 -0.0546875 6.46875 -0.921875 C 4.90625 -1.785156 3.6875 -2.972656 2.8125 -4.484375 C 1.9375 -5.992188 1.5 -7.710938 1.5 -9.640625 C 1.5 -11.835938 1.957031 -13.71875 2.875 -15.28125 C 3.800781 -16.84375 5.023438 -18.039062 6.546875 -18.875 C 8.078125 -19.707031 9.742188 -20.125 11.546875 -20.125 C 13.191406 -20.125 14.6875 -19.71875 16.03125 -18.90625 C 17.382812 -18.09375 18.460938 -16.972656 19.265625 -15.546875 C 20.066406 -14.128906 20.46875 -12.472656 20.46875 -10.578125 L 20.421875 -8.921875 L 5.359375 -8.921875 C 5.585938 -7.148438 6.316406 -5.742188 7.546875 -4.703125 C 8.785156 -3.671875 10.351562 -3.15625 12.25 -3.15625 C 13.625 -3.15625 14.738281 -3.410156 15.59375 -3.921875 C 16.445312 -4.429688 17.144531 -4.921875 17.6875 -5.390625 Z M 11.546875 -16.5625 C 10.066406 -16.5625 8.773438 -16.21875 7.671875 -15.53125 C 6.578125 -14.84375 5.859375 -13.664062 5.515625 -12 L 16.53125 -12 L 16.53125 -12.25 C 16.457031 -13.101562 16.175781 -13.851562 15.6875 -14.5 C 15.195312 -15.15625 14.585938 -15.660156 13.859375 -16.015625 C 13.140625 -16.378906 12.367188 -16.5625 11.546875 -16.5625 Z M 11.546875 -16.5625 "/></g></g></g></svg>