<svg xmlns="http://www.w3.org/2000/svg" version="1.1" xmlns:xlink="http://www.w3.org/1999/xlink" width="512" height="512" x="0" y="0" viewBox="0 0 682.667 682.667" style="enable-background:new 0 0 512 512" xml:space="preserve" class=""><g><defs><clipPath id="a" clipPathUnits="userSpaceOnUse"><path d="M0 512h512V0H0Z" fill="#ffffff" opacity="1" data-original="#000000"></path></clipPath></defs><g clip-path="url(#a)" transform="matrix(1.33333 0 0 -1.33333 0 682.667)"><path d="M0 0c-2.166-7.36-3.646-14.722-4.457-21.969-.972-8.679-7.753-15.447-16.412-16.583-15.92-2.088-32.354-7.546-47.956-16.554-28.918-16.696-48.7-41.959-56.068-67.809-3.694-12.96-12.437-23.932-24.593-29.748l-.691-.329c-14.881-7.087-11.093-29.222 5.271-31.198a285.674 285.674 0 0 1 14.699-1.391c9.478-.651 18.517-4.308 25.873-10.319 27.974-22.86 75.336-24.01 116.828-.055 28.824 16.642 48.572 41.795 55.996 67.558 1.042 3.618 3.073 6.87 5.959 9.288l.086.071c2.51 2.103 5.508 3.52 8.713 4.189 29.232 6.097 58.513 27.622 77.361 60.27 18.85 32.648 22.851 68.768 13.515 97.132-1.023 3.111-1.295 6.416-.728 9.641l.019.109c.65 3.709 2.451 7.094 5.064 9.806 18.598 19.31 30.508 48.989 30.508 82.273 0 47.91-24.677 88.352-58.462 101.148-8.883 3.366-16.57 9.365-21.872 17.247a286.316 286.316 0 0 1-8.554 12.034c-9.894 13.183-30.956 5.397-29.654-11.034l.06-.763c1.041-13.435-4.089-26.493-13.466-36.172-18.702-19.305-30.689-49.069-30.689-82.461 0-18.016 3.489-34.977 9.64-49.808 3.347-8.067.876-17.323-6.155-22.504-13.533-9.972-25.814-23.331-35.511-39.527" style="stroke-width:15;stroke-linecap:round;stroke-linejoin:round;stroke-miterlimit:10;stroke-dasharray:none;stroke-opacity:1" transform="translate(167.002 222.005)" fill="none" stroke="#ffffff" stroke-width="15" stroke-linecap="round" stroke-linejoin="round" stroke-miterlimit="10" stroke-dasharray="none" stroke-opacity="" data-original="#000000" opacity="1" class=""></path><path d="M0 0c-22.572 13.032-27.181 47.305-10.295 76.552 16.886 29.247 48.872 42.392 71.443 29.361" style="stroke-width:15;stroke-linecap:round;stroke-linejoin:round;stroke-miterlimit:10;stroke-dasharray:none;stroke-opacity:1" transform="translate(223.31 157.037)" fill="none" stroke="#ffffff" stroke-width="15" stroke-linecap="round" stroke-linejoin="round" stroke-miterlimit="10" stroke-dasharray="none" stroke-opacity="" data-original="#000000" opacity="1" class=""></path><path d="M0 0c-26.062 0-47.191 27.377-47.191 61.148 0 33.772 21.129 61.149 47.191 61.149" style="stroke-width:15;stroke-linecap:round;stroke-linejoin:round;stroke-miterlimit:10;stroke-dasharray:none;stroke-opacity:1" transform="translate(294.67 305.238)" fill="none" stroke="#ffffff" stroke-width="15" stroke-linecap="round" stroke-linejoin="round" stroke-miterlimit="10" stroke-dasharray="none" stroke-opacity="" data-original="#000000" opacity="1" class=""></path><path d="M0 0c-13.031 22.571-47.305 27.181-76.552 10.295-29.247-16.886-42.391-48.872-29.36-71.443" style="stroke-width:15;stroke-linecap:round;stroke-linejoin:round;stroke-miterlimit:10;stroke-dasharray:none;stroke-opacity:1" transform="translate(191.792 127.049)" fill="none" stroke="#ffffff" stroke-width="15" stroke-linecap="round" stroke-linejoin="round" stroke-miterlimit="10" stroke-dasharray="none" stroke-opacity="" data-original="#000000" opacity="1" class=""></path><path d="M0 0c6.665-10.544 10.664-24.026 10.664-38.719 0-33.771-21.129-61.148-47.192-61.148S-83.72-72.49-83.72-38.719c0 33.772 21.129 61.149 47.192 61.149" style="stroke-width:15;stroke-linecap:round;stroke-linejoin:round;stroke-miterlimit:10;stroke-dasharray:none;stroke-opacity:1" transform="translate(459.709 405.106)" fill="none" stroke="#ffffff" stroke-width="15" stroke-linecap="round" stroke-linejoin="round" stroke-miterlimit="10" stroke-dasharray="none" stroke-opacity="" data-original="#000000" opacity="1" class=""></path><path d="M0 0a136.4 136.4 0 0 1 17.557 8.536c28.824 16.642 48.572 41.796 55.996 67.558 1.042 3.618 3.073 6.87 5.959 9.288l.086.071c2.509 2.104 5.507 3.521 8.713 4.19 29.232 6.096 58.512 27.622 77.361 60.27 18.849 32.648 22.85 68.767 13.515 97.131-1.024 3.111-1.295 6.416-.729 9.641l.02.109c.65 3.709 2.451 7.094 5.063 9.806 18.599 19.31 30.509 48.989 30.509 82.273 0 47.91-24.678 88.352-58.462 101.148-8.884 3.366-16.57 9.365-21.872 17.247a286.337 286.337 0 0 1-8.555 12.034c-9.893 13.183-30.956 5.397-29.653-11.034l.059-.763c1.041-13.435-4.088-26.493-13.465-36.172-5.071-5.234-9.648-11.237-13.626-17.873" style="stroke-width:15;stroke-linecap:round;stroke-linejoin:round;stroke-miterlimit:10;stroke-dasharray:none;stroke-opacity:1" transform="translate(290.45 17.514)" fill="none" stroke="#ffffff" stroke-width="15" stroke-linecap="round" stroke-linejoin="round" stroke-miterlimit="10" stroke-dasharray="none" stroke-opacity="" data-original="#000000" opacity="1" class=""></path><path d="M0 0a46.676 46.676 0 0 0 5.392-3.805c16.559-13.531 39.913-19.456 64.821-17.069" style="stroke-width:15;stroke-linecap:round;stroke-linejoin:round;stroke-miterlimit:10;stroke-dasharray:none;stroke-opacity:1" transform="translate(185.787 29.91)" fill="none" stroke="#ffffff" stroke-width="15" stroke-linecap="round" stroke-linejoin="round" stroke-miterlimit="10" stroke-dasharray="none" stroke-opacity="" data-original="#000000" opacity="1" class=""></path><path d="M0 0c3.18-9.73 9.186-17.823 17.819-22.808 22.572-13.031 54.558.114 71.444 29.361 16.885 29.247 12.276 63.52-10.295 76.552-20.812 12.016-49.627 1.777-67.231-22.817" style="stroke-width:15;stroke-linecap:round;stroke-linejoin:round;stroke-miterlimit:10;stroke-dasharray:none;stroke-opacity:1" transform="translate(334.002 179.844)" fill="none" stroke="#ffffff" stroke-width="15" stroke-linecap="round" stroke-linejoin="round" stroke-miterlimit="10" stroke-dasharray="none" stroke-opacity="" data-original="#000000" opacity="1" class=""></path><path d="M0 0c15.167-17.505 45.896-19.912 72.473-4.567 29.247 16.885 42.392 48.872 29.36 71.443-3.186 5.518-7.642 9.962-12.982 13.281" style="stroke-width:15;stroke-linecap:round;stroke-linejoin:round;stroke-miterlimit:10;stroke-dasharray:none;stroke-opacity:1" transform="translate(218.47 60.173)" fill="none" stroke="#ffffff" stroke-width="15" stroke-linecap="round" stroke-linejoin="round" stroke-miterlimit="10" stroke-dasharray="none" stroke-opacity="" data-original="#000000" opacity="1" class=""></path></g></g></svg>