<?xml version="1.0" encoding="UTF-8" standalone="no"?>
<!-- Created with Inkscape (http://www.inkscape.org/) -->

<svg
   version="1.1"
   id="svg3759"
   xml:space="preserve"
   width="682.66669"
   height="682.66669"
   viewBox="0 0 682.66669 682.66669"
   xmlns="http://www.w3.org/2000/svg"
   xmlns:svg="http://www.w3.org/2000/svg"><defs
     id="defs3763"><clipPath
       clipPathUnits="userSpaceOnUse"
       id="clipPath3773"><path
         d="M 0,512 H 512 V 0 H 0 Z"
         id="path3771" /></clipPath></defs><g
     id="g3765"
     transform="matrix(1.3333333,0,0,-1.3333333,0,682.66667)"><g
       id="g3767"><g
         id="g3769"
         clip-path="url(#clipPath3773)"><g
           id="g3775"
           transform="translate(167.002,222.0054)"><path
             d="m 0,0 c -2.166,-7.36 -3.646,-14.722 -4.457,-21.969 -0.972,-8.679 -7.753,-15.447 -16.412,-16.583 -15.92,-2.088 -32.354,-7.546 -47.956,-16.554 -28.918,-16.696 -48.7,-41.959 -56.068,-67.809 -3.694,-12.96 -12.437,-23.932 -24.593,-29.748 -0.23,-0.11 -0.46,-0.22 -0.691,-0.329 -14.881,-7.087 -11.093,-29.222 5.271,-31.198 4.875,-0.589 9.776,-1.053 14.699,-1.391 9.478,-0.651 18.517,-4.308 25.873,-10.319 27.974,-22.86 75.336,-24.01 116.828,-0.055 28.824,16.642 48.572,41.795 55.996,67.558 1.042,3.618 3.073,6.87 5.959,9.288 l 0.086,0.071 c 2.51,2.103 5.508,3.52 8.713,4.189 29.232,6.097 58.513,27.622 77.361,60.27 18.85,32.648 22.851,68.768 13.515,97.132 -1.023,3.111 -1.295,6.416 -0.728,9.641 l 0.019,0.109 c 0.65,3.709 2.451,7.094 5.064,9.806 18.598,19.31 30.508,48.989 30.508,82.273 0,47.91 -24.677,88.352 -58.462,101.148 -8.883,3.366 -16.57,9.365 -21.872,17.247 -2.755,4.095 -5.607,8.107 -8.554,12.034 -9.894,13.183 -30.956,5.397 -29.654,-11.034 0.021,-0.255 0.04,-0.509 0.06,-0.763 C 91.546,249.579 86.416,236.521 77.039,226.842 58.337,207.537 46.35,177.773 46.35,144.381 c 0,-18.016 3.489,-34.977 9.64,-49.808 C 59.337,86.506 56.866,77.25 49.835,72.069 36.302,62.097 24.021,48.738 14.324,32.542"
             style="fill:none;stroke:#000000;stroke-width:15;stroke-linecap:round;stroke-linejoin:round;stroke-miterlimit:10;stroke-dasharray:none;stroke-opacity:1"
             id="path3777" /></g><g
           id="g3779"
           transform="translate(223.3105,157.0366)"><path
             d="m 0,0 c -22.572,13.032 -27.181,47.305 -10.295,76.552 16.886,29.247 48.872,42.392 71.443,29.361"
             style="fill:none;stroke:#000000;stroke-width:15;stroke-linecap:round;stroke-linejoin:round;stroke-miterlimit:10;stroke-dasharray:none;stroke-opacity:1"
             id="path3781" /></g><g
           id="g3783"
           transform="translate(294.6699,305.2383)"><path
             d="m 0,0 c -26.062,0 -47.191,27.377 -47.191,61.148 0,33.772 21.129,61.149 47.191,61.149"
             style="fill:none;stroke:#000000;stroke-width:15;stroke-linecap:round;stroke-linejoin:round;stroke-miterlimit:10;stroke-dasharray:none;stroke-opacity:1"
             id="path3785" /></g><g
           id="g3787"
           transform="translate(191.792,127.0488)"><path
             d="m 0,0 c -13.031,22.571 -47.305,27.181 -76.552,10.295 -29.247,-16.886 -42.391,-48.872 -29.36,-71.443"
             style="fill:none;stroke:#000000;stroke-width:15;stroke-linecap:round;stroke-linejoin:round;stroke-miterlimit:10;stroke-dasharray:none;stroke-opacity:1"
             id="path3789" /></g><g
           id="g3791"
           transform="translate(459.709,405.1055)"><path
             d="m 0,0 c 6.665,-10.544 10.664,-24.026 10.664,-38.719 0,-33.771 -21.129,-61.148 -47.192,-61.148 -26.063,0 -47.192,27.377 -47.192,61.148 0,33.772 21.129,61.149 47.192,61.149"
             style="fill:none;stroke:#000000;stroke-width:15;stroke-linecap:round;stroke-linejoin:round;stroke-miterlimit:10;stroke-dasharray:none;stroke-opacity:1"
             id="path3793" /></g><g
           id="g3795"
           transform="translate(290.4502,17.5142)"><path
             d="m 0,0 c 5.92,2.367 11.795,5.209 17.557,8.536 28.824,16.642 48.572,41.796 55.996,67.558 1.042,3.618 3.073,6.87 5.959,9.288 l 0.086,0.071 c 2.509,2.104 5.507,3.521 8.713,4.19 29.232,6.096 58.512,27.622 77.361,60.27 18.849,32.648 22.85,68.767 13.515,97.131 -1.024,3.111 -1.295,6.416 -0.729,9.641 l 0.02,0.109 c 0.65,3.709 2.451,7.094 5.063,9.806 18.599,19.31 30.509,48.989 30.509,82.273 0,47.91 -24.678,88.352 -58.462,101.148 -8.884,3.366 -16.57,9.365 -21.872,17.247 -2.755,4.095 -5.608,8.107 -8.555,12.034 -9.893,13.183 -30.956,5.397 -29.653,-11.034 0.02,-0.254 0.04,-0.509 0.059,-0.763 1.041,-13.435 -4.088,-26.493 -13.465,-36.172 -5.071,-5.234 -9.648,-11.237 -13.626,-17.873"
             style="fill:none;stroke:#000000;stroke-width:15;stroke-linecap:round;stroke-linejoin:round;stroke-miterlimit:10;stroke-dasharray:none;stroke-opacity:1"
             id="path3797" /></g><g
           id="g3799"
           transform="translate(185.7871,29.9097)"><path
             d="M 0,0 C 1.878,-1.135 3.68,-2.406 5.392,-3.805 21.951,-17.336 45.305,-23.261 70.213,-20.874"
             style="fill:none;stroke:#000000;stroke-width:15;stroke-linecap:round;stroke-linejoin:round;stroke-miterlimit:10;stroke-dasharray:none;stroke-opacity:1"
             id="path3801" /></g><g
           id="g3803"
           transform="translate(334.002,179.8442)"><path
             d="M 0,0 C 3.18,-9.73 9.186,-17.823 17.819,-22.808 40.391,-35.839 72.377,-22.694 89.263,6.553 106.148,35.8 101.539,70.073 78.968,83.105 58.156,95.121 29.341,84.882 11.737,60.288"
             style="fill:none;stroke:#000000;stroke-width:15;stroke-linecap:round;stroke-linejoin:round;stroke-miterlimit:10;stroke-dasharray:none;stroke-opacity:1"
             id="path3805" /></g><g
           id="g3807"
           transform="translate(218.4697,60.1729)"><path
             d="m 0,0 c 15.167,-17.505 45.896,-19.912 72.473,-4.567 29.247,16.885 42.392,48.872 29.36,71.443 -3.186,5.518 -7.642,9.962 -12.982,13.281"
             style="fill:none;stroke:#000000;stroke-width:15;stroke-linecap:round;stroke-linejoin:round;stroke-miterlimit:10;stroke-dasharray:none;stroke-opacity:1"
             id="path3809" /></g></g></g></g></svg>
